<svg width="80" height="80"
    xmlns="http://www.w3.org/2000/svg">
    <g fill="none" fill-rule="evenodd">
        <circle fill="currentColor" opacity=".888" cx="40" cy="40" r="40"/>
        <path d="M34.275 52.133c.233 0 .476-.048.73-.146 5.755-2.333 11.384-5.706 16.887-10.12a1.77 1.77 0 00.641-1.4c0-.584-.214-1.04-.641-1.371-.156-.156-.477-.423-.963-.802a82.084 82.084 0 00-2.42-1.78 81.99 81.99 0 00-3.588-2.42c-1.264-.807-2.795-1.687-4.594-2.64a60.65 60.65 0 00-5.323-2.508 2.028 2.028 0 00-.729-.146c-.35 0-.67.087-.962.262-.545.35-.837.827-.876 1.43-.019.116-.063.607-.13 1.473-.069.865-.137 2.119-.205 3.762a114.656 114.656 0 00-.102 4.74c0 1.516.034 3.101.102 4.754.068 1.653.136 2.902.204 3.748.068.846.112 1.346.132 1.502.038.603.33 1.07.874 1.4.292.175.613.262.963.262z" fill="#FFF" fill-rule="nonzero"/>
    </g>
</svg>
